<?xml version="1.0" encoding="UTF-8"?>
<svg id="Camada_2" data-name="Camada 2" xmlns="http://www.w3.org/2000/svg" viewBox="0 0 73.4 99.9">
  <defs>
    <style>
      .cls-1, .cls-2, .cls-3 {
        fill: #fff;
      }

      .cls-2 {
        stroke-width: .5px;
      }

      .cls-2, .cls-3 {
        stroke: #fff;
        stroke-miterlimit: 10;
      }
    </style>
  </defs>
  <g id="Camada_1-2" data-name="Camada 1">
    <path class="cls-3" d="M52.8,89.75l-1-.06,.26-26.8h-12.73c-.27,.27-.91,.92-1.55,1.58q-1.84,1.9-2.06,1.9t-2.3-1.88c-.76-.68-1.52-1.36-1.82-1.62h-10.72s-.26,26.52-.26,26.52l-.99,.08c-1.06-6.01-3.45-11.81-6.92-16.75-2.71-3.86-6.04-7.22-9.9-9.98l-1.27-.91,18.35,.02,.48-49.67L3.8,34.32l-.8-.6L21.42,9.15l-.51,52.71h10.9q.2,.01,2.3,1.89c.62,.55,1.24,1.1,1.61,1.43,.32-.33,.84-.87,1.36-1.4q1.84-1.9,2.06-1.9h12.94s.51-52.64,.51-52.64l16.03,26.11-.85,.52-14.21-23.15-.48,49.17,18.52,.02-1.55,.93c-3.4,2.03-8.26,5.73-12.04,11.81-2.83,4.54-4.63,9.76-5.2,15.1ZM4.64,62.84c3.44,2.64,6.43,5.77,8.91,9.31,2.74,3.91,4.82,8.34,6.13,12.99l.22-22.28-15.26-.02Zm48.42,.05l-.21,21.13c.94-3.49,2.39-6.85,4.29-9.9,3.38-5.42,7.57-8.99,10.91-11.21l-14.99-.02Z"/>
    <path class="cls-3" d="M52.85,9.26l-3.34-4.03,3.4-4.42,3.4,4.27-3.46,4.18Zm-2.06-4.05l2.06,2.48,2.17-2.62-2.1-2.64-2.13,2.78Z"/>
    <path class="cls-2" d="M35.55,62.04l-3.74-4.51,7.65-.2-3.9,4.71Zm-1.66-3.57l1.66,2,1.73-2.09-3.39,.09Z"/>
    <g>
      <path class="cls-1" d="M40.73,68.21c0,.52,.33,.96,.79,1.14v11.53l2.91,2.91v5.04h-1.63v-3.17l-2.91-2.91v-4.63c.49-.16,.84-.62,.84-1.16,0-.67-.55-1.22-1.22-1.22s-1.22,.55-1.22,1.22c0,.52,.33,.96,.79,1.14v4.99l2.91,2.91v2.83c0,3.02-2.46,5.48-5.48,5.48s-5.47-2.45-5.48-5.47h0v-2.84l2.91-2.91v-4.99c.46-.18,.79-.62,.79-1.14,0-.67-.55-1.22-1.22-1.22s-1.22,.55-1.22,1.22c0,.54,.35,1,.84,1.16v4.63l-2.91,2.91v3.18h-1.63v-5.05l2.91-2.91v-11.53c.46-.18,.79-.62,.79-1.14,0-.67-.55-1.22-1.22-1.22s-1.22,.55-1.22,1.22c0,.54,.35,1,.84,1.16v11.17l-2.91,2.91v5.38h-1.51v-7.25l2.91-2.91v-4.99c.46-.18,.79-.62,.79-1.14,0-.67-.55-1.22-1.22-1.22s-1.22,.55-1.22,1.22c0,.54,.35,1,.84,1.16v4.63l-2.91,2.91v8.01h0v1.08l2.25,.24c.08,.4,.18,.78,.31,1.16l-1.83,1.34,1.5,2.59,2.08-.92c.26,.3,.54,.58,.84,.84l-.92,2.08,2.59,1.5,1.34-1.83c.37,.13,.76,.23,1.16,.31l.24,2.26h3l.24-2.26c.4-.08,.78-.18,1.16-.31l1.34,1.83,2.59-1.5-.92-2.08c.3-.26,.58-.54,.84-.84l2.08,.92,1.5-2.59-1.83-1.34c.13-.37,.23-.76,.31-1.16l2.25-.24v-1.08h0v-8.01l-2.91-2.91v-4.63c.49-.16,.84-.62,.84-1.16,0-.67-.55-1.22-1.22-1.22s-1.22,.55-1.22,1.22c0,.52,.33,.96,.79,1.14v4.99l2.91,2.91v7.25h-1.51v-5.38l-2.91-2.91v-11.17c.49-.16,.84-.62,.84-1.16,0-.67-.55-1.22-1.22-1.22s-1.22,.55-1.22,1.22Zm-1.63,8.75c0-.22,.18-.41,.41-.41s.41,.18,.41,.41-.18,.41-.41,.41-.41-.18-.41-.41Zm-6,0c0-.22,.18-.41,.41-.41s.41,.18,.41,.41-.18,.41-.41,.41-.41-.18-.41-.41Zm-2.44-8.75c0-.22,.18-.41,.41-.41s.41,.18,.41,.41-.18,.41-.41,.41-.41-.18-.41-.41Zm-2.33,4.34c0-.22,.18-.41,.41-.41s.41,.18,.41,.41-.18,.41-.41,.41-.41-.18-.41-.41Zm15.53,0c0-.22,.18-.41,.41-.41s.41,.18,.41,.41-.18,.41-.41,.41-.41-.18-.41-.41Zm-1.51-4.34c0,.22-.18,.41-.41,.41s-.41-.18-.41-.41,.18-.41,.41-.41,.41,.18,.41,.41Z"/>
      <path class="cls-1" d="M37.73,70.71c0-.67-.55-1.22-1.22-1.22s-1.22,.55-1.22,1.22c0,.54,.35,1,.84,1.16v13.99c-1.48,.19-2.62,1.45-2.62,2.98,0,1.65,1.35,3,3,3s3-1.35,3-3c0-1.51-1.12-2.76-2.56-2.97v-14.02c.46-.18,.79-.62,.79-1.14Zm-.26,18.13c0,.53-.43,.96-.96,.96s-.96-.43-.96-.96,.43-.96,.96-.96,.96,.43,.96,.96Zm-1.37-18.13c0-.22,.18-.41,.41-.41s.41,.18,.41,.41-.18,.41-.41,.41-.41-.18-.41-.41Z"/>
    </g>
  </g>
</svg>